<svg xmlns="http://www.w3.org/2000/svg" viewBox="0 0 920 760"><defs><linearGradient id="bg" x1="0" x2="1" y1="0" y2="1"><stop offset="0" stop-color="#fff8ed"/><stop offset="1" stop-color="#ead3bd"/></linearGradient><linearGradient id="skin" x1="0" x2="1" y1="0" y2="1"><stop offset="0" stop-color="#efc4a4"/><stop offset="1" stop-color="#c88f70"/></linearGradient></defs><rect width="920" height="760" rx="34" fill="url(#bg)"/><path fill="#f7eadc" d="M93 122c123-84 302-100 463-65 154 33 261 110 289 228 31 132-34 283-153 358-112 71-276 63-416 28-126-32-238-88-262-202-25-119-25-274 79-347z"/><g fill="none" stroke="#718562" stroke-linecap="round" stroke-width="10"><path d="M461 550c-11-102-35-211-102-323"/><path d="M469 552c5-115 4-240 6-361"/><path d="M478 552c25-113 77-220 146-318"/><path d="M453 556c-48-80-116-142-205-186"/><path d="M486 557c68-72 132-132 214-166"/></g><path fill="#c97971" d="M310 198c39-58 111-43 129 13 15 48-27 103-88 87-49-13-68-60-41-100z"/><path fill="#e7a19a" d="M331 211c26-32 67-22 77 8 10 32-19 66-57 57-33-8-42-41-20-65z"/><path fill="#d8a052" d="M439 130c53-42 119-5 117 52-2 53-63 88-112 50-40-32-42-73-5-102z"/><path fill="#f0c878" d="M462 151c35-21 71 3 68 34-3 33-41 53-70 31-25-19-25-48 2-65z"/><path fill="#bd766e" d="M613 211c50-48 119-19 126 37 7 51-49 94-102 61-44-27-57-66-24-98z"/><path fill="#df9690" d="M637 228c32-25 70-7 73 25 3 33-32 58-64 38-27-17-30-42-9-63z"/><path fill="#efe0cf" d="M210 342c47-40 105-15 111 34 6 45-43 82-91 54-39-23-51-61-20-88z"/><path fill="#8b9974" d="M673 360c57-30 112 13 99 63-12 45-71 67-110 28-32-32-27-72 11-91z"/><path fill="#e4c7a5" d="M389 518c54 23 122 24 177 4l12 142H382l7-146z"/><path fill="url(#skin)" d="M304 556c32-26 91-24 132 6 29 21 58 36 103 34 32-1 46 36 19 56-44 33-153 27-216-13-39-25-62-62-38-83z"/><path fill="url(#skin)" d="M624 548c-34-23-91-15-128 18-26 24-53 42-98 44-32 2-42 40-13 57 48 29 155 12 214-34 36-29 50-66 25-85z"/></svg>