<svg xmlns="http://www.w3.org/2000/svg" viewBox="0 0 640 420"><rect width="640" height="420" fill="#fff3e4"/><rect x="190" y="172" width="260" height="160" rx="8" fill="#d9b48f"/><rect x="170" y="142" width="300" height="54" rx="8" fill="#e7c7a8"/><rect x="303" y="142" width="34" height="190" fill="#b46a62"/><path d="M320 142c-28-48-82-42-82-5 0 31 48 23 82 5z" fill="#c97971"/><path d="M320 142c28-48 82-42 82-5 0 31-48 23-82 5z" fill="#d98c83"/><g fill="none" stroke="#7f8f70" stroke-width="7" stroke-linecap="round"><path d="M317 144c-18-54-12-95 18-128"/><path d="M336 142c44-30 82-42 116-36"/></g><circle cx="336" cy="70" r="34" fill="#f0c878"/><circle cx="454" cy="106" r="30" fill="#df9690"/></svg>